<mxfile host="app.diagrams.net" modified="2024-04-21T21:41:17.727Z" agent="Mozilla/5.0 (X11; Linux x86_64; rv:124.0) Gecko/20100101 Firefox/124.0" etag="2jdsyFIxLRmDCiU4VXcj" version="24.0.1" type="device">
  <diagram name="Page-1" id="seT4QDMRRIx92GPCQ2Qz">
    <mxGraphModel dx="989" dy="523" grid="1" gridSize="10" guides="1" tooltips="1" connect="1" arrows="1" fold="1" page="1" pageScale="1" pageWidth="850" pageHeight="1100" math="0" shadow="0">
      <root>
        <mxCell id="0" />
        <mxCell id="1" parent="0" />
        <mxCell id="f-UgvAqyZf91lb-QHqy1-1" value="" style="rounded=0;whiteSpace=wrap;html=1;" vertex="1" parent="1">
          <mxGeometry x="80" y="200" width="10" height="690" as="geometry" />
        </mxCell>
        <mxCell id="f-UgvAqyZf91lb-QHqy1-2" value="" style="rounded=0;whiteSpace=wrap;html=1;" vertex="1" parent="1">
          <mxGeometry x="380" y="200" width="10" height="250" as="geometry" />
        </mxCell>
        <mxCell id="f-UgvAqyZf91lb-QHqy1-3" value="" style="rounded=0;whiteSpace=wrap;html=1;" vertex="1" parent="1">
          <mxGeometry x="680" y="200" width="10" height="690" as="geometry" />
        </mxCell>
        <mxCell id="f-UgvAqyZf91lb-QHqy1-4" value="largest division" style="text;html=1;align=center;verticalAlign=middle;whiteSpace=wrap;rounded=0;" vertex="1" parent="1">
          <mxGeometry x="27.5" y="160" width="115" height="30" as="geometry" />
        </mxCell>
        <mxCell id="f-UgvAqyZf91lb-QHqy1-5" value="second largest division" style="text;html=1;align=center;verticalAlign=middle;whiteSpace=wrap;rounded=0;" vertex="1" parent="1">
          <mxGeometry x="327.5" y="160" width="115" height="30" as="geometry" />
        </mxCell>
        <mxCell id="f-UgvAqyZf91lb-QHqy1-6" value="last division" style="text;html=1;align=center;verticalAlign=middle;whiteSpace=wrap;rounded=0;" vertex="1" parent="1">
          <mxGeometry x="627.5" y="160" width="115" height="30" as="geometry" />
        </mxCell>
        <mxCell id="f-UgvAqyZf91lb-QHqy1-7" value="" style="endArrow=classic;html=1;rounded=0;entryX=-0.279;entryY=0.653;entryDx=0;entryDy=0;entryPerimeter=0;" edge="1" parent="1" target="f-UgvAqyZf91lb-QHqy1-2">
          <mxGeometry width="50" height="50" relative="1" as="geometry">
            <mxPoint x="90" y="240" as="sourcePoint" />
            <mxPoint x="140" y="190" as="targetPoint" />
          </mxGeometry>
        </mxCell>
        <mxCell id="f-UgvAqyZf91lb-QHqy1-8" value="time.Now()" style="text;html=1;align=center;verticalAlign=middle;whiteSpace=wrap;rounded=0;" vertex="1" parent="1">
          <mxGeometry x="200" y="250" width="60" height="30" as="geometry" />
        </mxCell>
        <mxCell id="f-UgvAqyZf91lb-QHqy1-9" value="Attacks" style="text;html=1;align=center;verticalAlign=middle;whiteSpace=wrap;rounded=0;" vertex="1" parent="1">
          <mxGeometry x="90" y="780" width="60" height="30" as="geometry" />
        </mxCell>
        <mxCell id="f-UgvAqyZf91lb-QHqy1-10" value="" style="endArrow=none;dashed=1;html=1;dashPattern=1 3;strokeWidth=2;rounded=0;" edge="1" parent="1">
          <mxGeometry width="50" height="50" relative="1" as="geometry">
            <mxPoint x="370" y="350" as="sourcePoint" />
            <mxPoint x="370" y="240" as="targetPoint" />
          </mxGeometry>
        </mxCell>
        <mxCell id="f-UgvAqyZf91lb-QHqy1-11" value="x" style="text;html=1;align=center;verticalAlign=middle;whiteSpace=wrap;rounded=0;" vertex="1" parent="1">
          <mxGeometry x="327.5" y="280" width="60" height="30" as="geometry" />
        </mxCell>
        <mxCell id="f-UgvAqyZf91lb-QHqy1-12" value="" style="endArrow=classic;html=1;rounded=0;" edge="1" parent="1">
          <mxGeometry width="50" height="50" relative="1" as="geometry">
            <mxPoint x="380" y="370" as="sourcePoint" />
            <mxPoint x="90" y="430" as="targetPoint" />
          </mxGeometry>
        </mxCell>
        <mxCell id="f-UgvAqyZf91lb-QHqy1-22" value="x" style="text;html=1;align=center;verticalAlign=middle;whiteSpace=wrap;rounded=0;" vertex="1" parent="1">
          <mxGeometry x="190" y="360" width="80" height="30" as="geometry" />
        </mxCell>
        <mxCell id="f-UgvAqyZf91lb-QHqy1-23" value="" style="endArrow=classic;html=1;rounded=0;entryX=-0.279;entryY=0.472;entryDx=0;entryDy=0;entryPerimeter=0;" edge="1" parent="1" target="f-UgvAqyZf91lb-QHqy1-3">
          <mxGeometry width="50" height="50" relative="1" as="geometry">
            <mxPoint x="90" y="430" as="sourcePoint" />
            <mxPoint x="670" y="520" as="targetPoint" />
          </mxGeometry>
        </mxCell>
        <mxCell id="f-UgvAqyZf91lb-QHqy1-24" value="x" style="text;html=1;align=center;verticalAlign=middle;whiteSpace=wrap;rounded=0;" vertex="1" parent="1">
          <mxGeometry x="460" y="460" width="60" height="30" as="geometry" />
        </mxCell>
        <mxCell id="f-UgvAqyZf91lb-QHqy1-25" value="" style="endArrow=classic;html=1;rounded=0;exitX=-0.417;exitY=0.484;exitDx=0;exitDy=0;exitPerimeter=0;" edge="1" parent="1" source="f-UgvAqyZf91lb-QHqy1-3">
          <mxGeometry width="50" height="50" relative="1" as="geometry">
            <mxPoint x="610" y="590" as="sourcePoint" />
            <mxPoint x="100" y="670" as="targetPoint" />
          </mxGeometry>
        </mxCell>
        <mxCell id="f-UgvAqyZf91lb-QHqy1-26" value="" style="rounded=0;whiteSpace=wrap;html=1;" vertex="1" parent="1">
          <mxGeometry x="377.5" y="670" width="10" height="220" as="geometry" />
        </mxCell>
        <mxCell id="f-UgvAqyZf91lb-QHqy1-27" value="3dx" style="text;html=1;align=center;verticalAlign=middle;whiteSpace=wrap;rounded=0;" vertex="1" parent="1">
          <mxGeometry x="28" y="780" width="60" height="30" as="geometry" />
        </mxCell>
        <mxCell id="f-UgvAqyZf91lb-QHqy1-28" value="3dx + 1" style="text;html=1;align=center;verticalAlign=middle;whiteSpace=wrap;rounded=0;" vertex="1" parent="1">
          <mxGeometry x="320" y="840" width="60" height="30" as="geometry" />
        </mxCell>
        <mxCell id="f-UgvAqyZf91lb-QHqy1-29" value="3dx + 2" style="text;html=1;align=center;verticalAlign=middle;whiteSpace=wrap;rounded=0;" vertex="1" parent="1">
          <mxGeometry x="620" y="880" width="60" height="30" as="geometry" />
        </mxCell>
        <mxCell id="f-UgvAqyZf91lb-QHqy1-30" value="Attacks" style="text;html=1;align=center;verticalAlign=middle;whiteSpace=wrap;rounded=0;" vertex="1" parent="1">
          <mxGeometry x="395" y="840" width="60" height="30" as="geometry" />
        </mxCell>
        <mxCell id="f-UgvAqyZf91lb-QHqy1-31" value="Attacks" style="text;html=1;align=center;verticalAlign=middle;whiteSpace=wrap;rounded=0;" vertex="1" parent="1">
          <mxGeometry x="700" y="880" width="60" height="30" as="geometry" />
        </mxCell>
      </root>
    </mxGraphModel>
  </diagram>
</mxfile>
